<!-- icon666.com - MILLIONS OF FREE VECTOR ICONS --><svg viewBox="0 0 128 128" xmlns="http://www.w3.org/2000/svg"><g><g><path d="m71.442 15.172c-6.862-10.71-21.081-8.479-21.081-8.479a73.109 73.109 0 0 1 6.881 17.191z" fill="#dfdfe5"></path><path d="m82.576 37.784c-.583 9.667-9.5 15.417-12.916 16.334 1.583-6.5 0-14.584 0-14.584z" fill="#dfdfe5"></path><path d="m26.868 79.638c-4.986 3.91-6.7 11.824-6.7 11.824a14.361 14.361 0 0 0 13.332-3.545s4.833 5.333 12.667 1.75a10.525 10.525 0 0 0 -6.833-9.651 3.022 3.022 0 0 1 -1.823-3.387c2.867-13.794 18.058-34.354 38.687-34.5a35.516 35.516 0 0 1 1.567 11.382c2.5-1.169 7.771-5.828 9.446-12.387a120.572 120.572 0 0 1 16.393.844 4.39 4.39 0 0 0 4.9-4.146 4.573 4.573 0 0 0 -3.05-4.388l-5.621-2.134c-13.686-37.97-85.285-14.311-71.96 45.43a2.9 2.9 0 0 1 -1.005 2.908z" fill="#efeffb"></path><path d="m121.5 117.5c-7.191 0-7.191 4-14.381 4s-7.191-4-14.381-4-7.186 4-14.371 4-7.188-4-14.376-4-7.185 4-14.371 4-7.187-4-14.374-4-7.187 4-14.373 4-7.187-4-14.373-4v-18c7.186 0 7.186 4 14.373 4s7.186-4 14.373-4 7.187 4 14.374 4 7.186-4 14.371-4 7.188 4 14.376 4 7.185-4 14.371-4 7.19 4 14.381 4 7.19-4 14.381-4z" fill="#3ba9fd"></path></g><g fill="#031a27"><path d="m19.811 93.174a18.51 18.51 0 0 0 3.815.408 16.059 16.059 0 0 0 9.874-3.332 12.972 12.972 0 0 0 13.4 1.008 1.75 1.75 0 0 0 1.02-1.518 12.2 12.2 0 0 0 -7.9-11.336 1.266 1.266 0 0 1 -.79-1.419 35.429 35.429 0 0 1 2.55-7.5 1.749 1.749 0 1 0 -3.18-1.466 38.942 38.942 0 0 0 -2.8 8.254 4.791 4.791 0 0 0 2.856 5.356 8.893 8.893 0 0 1 5.677 6.895 8.952 8.952 0 0 1 -9.533-1.783 1.756 1.756 0 0 0 -1.29-.571h-.01a1.762 1.762 0 0 0 -1.287.564 12.311 12.311 0 0 1 -9.816 3.292c.779-2.4 2.5-6.617 5.554-9.011a4.659 4.659 0 0 0 1.633-4.671c-6.374-28.578 7.4-47.719 22.406-56.1 14.277-7.973 30.7-7.262 39.937 1.724a1.75 1.75 0 1 0 2.439-2.509c-6.114-5.948-14.666-8.736-23.88-8.289-7.831-8.065-19.875-6.292-20.4-6.209a1.751 1.751 0 0 0 -1.247 2.6c.008.013.783 1.365 1.82 3.5a1.75 1.75 0 0 0 3.149-1.527c-.227-.467-.441-.9-.638-1.287h.313a21.733 21.733 0 0 1 12.218 3.435 47.877 47.877 0 0 0 -15.424 5.5c-16.112 9-30.909 29.465-24.116 59.921a1.161 1.161 0 0 1 -.377 1.154c-5.421 4.251-7.252 12.482-7.328 12.831a1.749 1.749 0 0 0 1.351 2.082z"></path><path d="m98.187 31.888a1.747 1.747 0 0 0 1.024 1.043l5.616 2.137a2.825 2.825 0 0 1 1.925 2.66 2.625 2.625 0 0 1 -.926 1.889 2.659 2.659 0 0 1 -2.023.611 123.044 123.044 0 0 0 -16.631-.856 1.75 1.75 0 0 0 -1.656 1.316 19.77 19.77 0 0 1 -6.031 9.512 42.6 42.6 0 0 0 -1.606-8.562 1.75 1.75 0 0 0 -1.679-1.261h-.012c-14.77.1-25.156 9.911-30.033 15.747a1.75 1.75 0 0 0 2.686 2.244c3.573-4.275 10.344-10.856 19.694-13.415a30.393 30.393 0 0 1 -.572 8.754 1.75 1.75 0 0 0 2.151 2.1 18.271 18.271 0 0 0 5.934-3.25c0 .279-.009.56-.026.836a1.749 1.749 0 0 0 2.487 1.7c2.42-1.13 7.808-5.526 10.021-12.242a121.372 121.372 0 0 1 14.877.853 6.2 6.2 0 0 0 4.682-1.416 6.091 6.091 0 0 0 2.162-4.378 6.355 6.355 0 0 0 -4.177-6.115l-4.877-1.855a31.72 31.72 0 0 0 -1.847-3.949 1.75 1.75 0 0 0 -3.059 1.7 28.587 28.587 0 0 1 1.896 4.197zm-26.194 12.336c.94-.142 1.9-.256 2.88-.307a41.175 41.175 0 0 1 .868 4.253 20.793 20.793 0 0 1 -3.811 3 40.034 40.034 0 0 0 .063-6.946z"></path><path d="m45.125 60.252a1.748 1.748 0 0 0 -2.428.478c-.515.769-1.018 1.561-1.494 2.355a1.75 1.75 0 1 0 3 1.8c.445-.743.916-1.485 1.4-2.2a1.749 1.749 0 0 0 -.478-2.433z"></path><path d="m34.786 42.171c-.609 1.3-1.163 2.647-1.645 4.009a1.75 1.75 0 1 0 3.3 1.169c.445-1.254.955-2.5 1.515-3.692a1.75 1.75 0 0 0 -3.168-1.486z"></path><circle cx="84" cy="22.712" r="2"></circle><path d="m6.5 101.25a11.139 11.139 0 0 1 6.335 1.779 14.562 14.562 0 0 0 8.038 2.221 14.558 14.558 0 0 0 8.037-2.221 11.146 11.146 0 0 1 6.335-1.779 11.153 11.153 0 0 1 6.337 1.779 14.559 14.559 0 0 0 8.038 2.221 14.558 14.558 0 0 0 8.037-2.221 12.171 12.171 0 0 1 12.671 0 15.656 15.656 0 0 0 16.076 0 12.176 12.176 0 0 1 12.674 0 15.666 15.666 0 0 0 16.082 0 11.162 11.162 0 0 1 6.34-1.779 1.75 1.75 0 0 0 0-3.5 14.571 14.571 0 0 0 -8.041 2.221 12.187 12.187 0 0 1 -12.68 0 15.659 15.659 0 0 0 -16.078 0 12.172 12.172 0 0 1 -12.672 0 15.654 15.654 0 0 0 -16.075 0 11.135 11.135 0 0 1 -6.334 1.779 11.153 11.153 0 0 1 -6.337-1.779 14.559 14.559 0 0 0 -8.038-2.221 14.562 14.562 0 0 0 -8.038 2.221 11.135 11.135 0 0 1 -6.334 1.779 11.139 11.139 0 0 1 -6.335-1.779 14.562 14.562 0 0 0 -8.038-2.221 1.75 1.75 0 0 0 0 3.5z"></path><path d="m121.5 106.75a14.571 14.571 0 0 0 -8.041 2.221 12.187 12.187 0 0 1 -12.68 0 15.659 15.659 0 0 0 -16.078 0 12.172 12.172 0 0 1 -12.672 0 15.654 15.654 0 0 0 -16.075 0 11.135 11.135 0 0 1 -6.334 1.779 11.153 11.153 0 0 1 -6.337-1.779 14.559 14.559 0 0 0 -8.038-2.221 14.562 14.562 0 0 0 -8.038 2.221 11.135 11.135 0 0 1 -6.334 1.779 11.139 11.139 0 0 1 -6.335-1.779 14.562 14.562 0 0 0 -8.038-2.221 1.75 1.75 0 0 0 0 3.5 11.139 11.139 0 0 1 6.335 1.779 14.562 14.562 0 0 0 8.038 2.221 14.558 14.558 0 0 0 8.037-2.221 11.146 11.146 0 0 1 6.335-1.779 11.153 11.153 0 0 1 6.337 1.779 14.559 14.559 0 0 0 8.038 2.221 14.558 14.558 0 0 0 8.037-2.221 12.171 12.171 0 0 1 12.671 0 15.656 15.656 0 0 0 16.076 0 12.176 12.176 0 0 1 12.674 0 15.666 15.666 0 0 0 16.082 0 11.162 11.162 0 0 1 6.34-1.779 1.75 1.75 0 0 0 0-3.5z"></path><path d="m121.5 115.75a14.571 14.571 0 0 0 -8.041 2.221 12.187 12.187 0 0 1 -12.68 0 15.659 15.659 0 0 0 -16.078 0 12.172 12.172 0 0 1 -12.672 0 15.654 15.654 0 0 0 -16.075 0 11.135 11.135 0 0 1 -6.334 1.779 11.153 11.153 0 0 1 -6.337-1.779 14.559 14.559 0 0 0 -8.038-2.221 14.562 14.562 0 0 0 -8.038 2.221 11.135 11.135 0 0 1 -6.334 1.779 11.139 11.139 0 0 1 -6.335-1.779 14.562 14.562 0 0 0 -8.038-2.221 1.75 1.75 0 0 0 0 3.5 11.139 11.139 0 0 1 6.335 1.779 14.562 14.562 0 0 0 8.038 2.221 14.558 14.558 0 0 0 8.037-2.221 11.146 11.146 0 0 1 6.335-1.779 11.153 11.153 0 0 1 6.337 1.779 14.559 14.559 0 0 0 8.038 2.221 14.558 14.558 0 0 0 8.037-2.221 12.171 12.171 0 0 1 12.671 0 15.656 15.656 0 0 0 16.076 0 12.176 12.176 0 0 1 12.674 0 15.666 15.666 0 0 0 16.082 0 11.162 11.162 0 0 1 6.34-1.779 1.75 1.75 0 0 0 0-3.5z"></path></g></g></svg>