<!-- icon666.com - MILLIONS OF FREE VECTOR ICONS --><svg id="Layer_1" enable-background="new 0 0 2048 2048" viewBox="0 0 2048 2048" xmlns="http://www.w3.org/2000/svg"><g><g><g id="XMLID_1_"><path d="m1178.41 1554v212.81h-589.58v-589.58h212.81c-10.72-15.81-16.98-34.9-16.98-55.45 0-54.65 44.31-98.97 98.96-98.97s98.97 44.32 98.97 98.97c0 20.55-6.27 39.64-16.99 55.45h212.81v2.81 210c-15.8-10.72-34.9-16.99-55.44-16.99-54.66 0-98.97 44.32-98.97 98.97s44.31 98.97 98.97 98.97c20.54 0 39.64-6.27 55.44-16.99z" fill="#ff725c"></path><path d="m1768 1180.04v586.77h-589.59v-212.81c-15.8 10.72-34.9 16.99-55.44 16.99-54.66 0-98.97-44.32-98.97-98.97s44.31-98.97 98.97-98.97c20.54 0 39.64 6.27 55.44 16.99v-210-2.81h212.82c-10.72 15.8-16.99 34.9-16.99 55.45 0 54.66 44.32 98.96 98.97 98.96s98.96-44.3 98.96-98.96c0-20.55-6.27-39.65-16.99-55.45h212.82z" fill="#f7e07f"></path><path d="m1768 590.46v586.77h-212.82c10.72 15.8 16.99 34.9 16.99 55.45 0 54.66-44.31 98.96-98.96 98.96s-98.97-44.3-98.97-98.96c0-20.55 6.27-39.65 16.99-55.45h-212.82v-210c15.81 10.72 34.9 16.99 55.45 16.99 54.67 0 98.97-44.32 98.97-98.97s-44.3-98.97-98.97-98.97c-20.55 0-39.64 6.27-55.45 16.99v-212.81z" fill="#4dd994"></path><path d="m925.03 477.01c54.66 0 98.97 44.32 98.97 98.97s-44.31 98.97-98.97 98.97c-20.54 0-39.64-6.27-55.44-16.99v212.81h-212.82c10.72-15.8 16.99-34.9 16.99-55.45 0-54.66-44.32-98.96-98.97-98.96s-98.96 44.3-98.96 98.96c0 20.55 6.27 39.65 16.99 55.45h-212.82v-589.58h589.59v212.81c15.8-10.72 34.9-16.99 55.44-16.99z" fill="#70beff"></path></g></g><g><g><path d="m1768 1790.81h-589.59c-13.25 0-24-10.75-24-24v-175.89c-10.18 2.69-20.73 4.06-31.45 4.06-67.8 0-122.97-55.16-122.97-122.97s55.16-122.97 122.97-122.97c10.72 0 21.27 1.37 31.45 4.06v-175.89c0-13.25 10.75-24 24-24h212.82c8.88 0 17.04 4.91 21.21 12.76s3.65 17.36-1.34 24.71c-8.41 12.4-12.85 26.91-12.85 41.98 0 41.34 33.63 74.97 74.96 74.97 41.34 0 74.97-33.63 74.97-74.97 0-15.07-4.44-29.58-12.85-41.98-4.99-7.35-5.5-16.86-1.34-24.71s12.32-12.76 21.21-12.76h212.8c13.25 0 24 10.75 24 24v589.59c0 13.27-10.75 24.01-24 24.01zm-565.59-48h541.59v-541.59h-151.89c2.68 10.18 4.06 20.73 4.06 31.45 0 67.8-55.16 122.97-122.97 122.97-67.8 0-122.96-55.16-122.96-122.97 0-10.72 1.37-21.27 4.06-31.45h-151.89v188.82c0 8.89-4.91 17.04-12.76 21.21-7.85 4.16-17.36 3.64-24.71-1.34-12.4-8.41-26.91-12.85-41.98-12.85-41.34 0-74.97 33.63-74.97 74.97s33.63 74.97 74.97 74.97c15.06 0 29.58-4.44 41.98-12.85 7.35-4.99 16.86-5.5 24.71-1.34s12.76 12.32 12.76 21.21z" fill="#333"></path></g><g><path d="m1178.41 1790.81h-589.58c-13.25 0-24-10.75-24-24v-589.59c0-13.25 10.75-24 24-24h175.89c-2.68-10.18-4.06-20.73-4.06-31.45 0-67.8 55.16-122.97 122.96-122.97s122.97 55.16 122.97 122.97c0 10.72-1.37 21.27-4.06 31.45h175.89c13.25 0 24 10.75 24 24s-10.75 24-24 24h-212.82c-8.89 0-17.04-4.91-21.21-12.76-4.16-7.85-3.64-17.36 1.34-24.71 8.41-12.4 12.85-26.91 12.85-41.98 0-41.34-33.63-74.97-74.97-74.97s-74.96 33.63-74.96 74.97c0 15.07 4.44 29.58 12.85 41.98 4.99 7.35 5.5 16.86 1.34 24.71s-12.32 12.76-21.21 12.76h-188.8v541.59h565.59c13.25 0 24 10.75 24 24s-10.75 24-24.01 24z" fill="#333"></path></g><g><path d="m869.59 894.77h-212.82c-8.89 0-17.04-4.91-21.21-12.76-4.16-7.85-3.65-17.36 1.34-24.71 8.41-12.4 12.85-26.91 12.85-41.98 0-41.34-33.63-74.97-74.97-74.97s-74.97 33.63-74.97 74.97c0 15.07 4.44 29.58 12.85 41.98 4.99 7.35 5.5 16.86 1.34 24.71s-12.32 12.76-21.21 12.76h-212.79c-13.25 0-24-10.75-24-24v-589.58c0-13.25 10.75-24 24-24h589.59c13.25 0 24 10.75 24 24v175.89c10.18-2.68 20.73-4.06 31.45-4.06 67.8 0 122.97 55.16 122.97 122.96s-55.16 122.97-122.97 122.97c-10.72 0-21.27-1.38-31.45-4.06v175.89c0 13.25-10.75 23.99-24 23.99zm-175.89-48h151.89v-188.81c0-8.89 4.91-17.04 12.76-21.21 7.85-4.16 17.36-3.64 24.71 1.34 12.4 8.41 26.91 12.85 41.98 12.85 41.34 0 74.97-33.63 74.97-74.97s-33.63-74.96-74.97-74.96c-15.07 0-29.58 4.44-41.98 12.85-7.35 4.99-16.86 5.5-24.71 1.34s-12.76-12.32-12.76-21.21v-188.8h-541.59v541.59h151.89c-2.68-10.18-4.06-20.73-4.06-31.45 0-67.8 55.16-122.97 122.97-122.97 67.8 0 122.97 55.16 122.97 122.97-.01 10.71-1.39 21.27-4.07 31.44z" fill="#333"></path></g><g><path d="m1768 1204.04c-13.25 0-24-10.75-24-24v-565.58h-541.59v151.89c10.18-2.68 20.73-4.06 31.45-4.06 67.8 0 122.97 55.16 122.97 122.97 0 67.8-55.16 122.96-122.97 122.96-10.72 0-21.27-1.37-31.45-4.06v175.89c0 13.25-10.75 24-24 24s-24-10.75-24-24v-212.82c0-8.89 4.91-17.04 12.76-21.21 7.85-4.16 17.36-3.64 24.71 1.34 12.4 8.41 26.91 12.85 41.98 12.85 41.34 0 74.97-33.63 74.97-74.96 0-41.34-33.63-74.97-74.97-74.97-15.07 0-29.58 4.44-41.98 12.85-7.35 4.99-16.86 5.5-24.71 1.34s-12.76-12.32-12.76-21.21v-212.8c0-13.25 10.75-24 24-24h589.59c13.25 0 24 10.75 24 24v589.59c0 13.25-10.75 23.99-24 23.99z" fill="#333"></path></g></g></g></svg>