<!-- icon666.com - MILLIONS OF FREE VECTOR ICONS --><svg id="icons" viewBox="0 0 60 60" xmlns="http://www.w3.org/2000/svg"><path d="m56 29v28a2 2 0 0 1 -2 2h-48a2 2 0 0 1 -2-2v-28l26-15z" fill="#d6e6f4"></path><path d="m10 8v-6a1 1 0 0 1 1-1h6a1 1 0 0 1 1 1v6z" fill="#b5cedd"></path><path d="m19 21v7a1 1 0 0 1 -1 1h-15a2 2 0 0 1 -1.97-2.36l3.28-18a1.994 1.994 0 0 1 1.962-1.64h47.456a1.994 1.994 0 0 1 1.96 1.64l3.28 18a2 2 0 0 1 -1.968 2.36h-15a1 1 0 0 1 -1-1v-7l-11-7z" fill="#cd596b"></path><rect fill="#47b2af" height="8" rx="1" width="8" x="10" y="46"></rect><rect fill="#47b2af" height="8" rx="1" width="8" x="10" y="34"></rect><rect fill="#47b2af" height="8" rx="1" width="8" x="26" y="34"></rect><rect fill="#47b2af" height="8" rx="1" width="8" x="26" y="22"></rect><rect fill="#47b2af" height="8" rx="1" width="8" x="42" y="46"></rect><rect fill="#47b2af" height="8" rx="1" width="8" x="42" y="34"></rect><path d="m25 59v-12a1 1 0 0 1 1-1h8a1 1 0 0 1 1 1v12z" fill="#627e84"></path><path d="m41.759 22.843-11.759-7.236-11.759 7.236a1.059 1.059 0 0 1 -1.458-.347l-1.11-1.8a1.06 1.06 0 0 1 .347-1.457l12.87-7.92a2.113 2.113 0 0 1 2.22 0l12.87 7.92a1.06 1.06 0 0 1 .347 1.457l-1.11 1.8a1.059 1.059 0 0 1 -1.458.347z" fill="#a54759"></path><g fill="#373737"><path d="m17 0h-6a2 2 0 0 0 -2 2v4h-2.729a2.987 2.987 0 0 0 -2.943 2.46l-3.28 18a3 3 0 0 0 2.952 3.54h15a2 2 0 0 0 2-2v-5.065l10-6.154 10 6.154v5.065a2 2 0 0 0 2 2h13v27a1 1 0 0 1 -1 1h-18v-11a2 2 0 0 0 -2-2h-8a2 2 0 0 0 -2 2v11h-18a1 1 0 0 1 -1-1v-24a1 1 0 0 0 -2 0v24a3 3 0 0 0 3 3h48a3 3 0 0 0 3-3v-27a3 3 0 0 0 2.951-3.54l-3.278-18a2.988 2.988 0 0 0 -2.944-2.46h-34.729v-4a2 2 0 0 0 -2-2zm9 47h8v11h-8zm-15-45h6v4h-6zm19 12.607a1 1 0 0 0 -.524.149l-11.841 7.216-1.09-1.885 12.87-7.921a1.111 1.111 0 0 1 1.171 0l12.89 8-1.111 1.8a.063.063 0 0 1 -.081.02l-11.76-7.236a1 1 0 0 0 -.524-.143zm24.705-5.788 3.278 18a1 1 0 0 1 -.218.828.987.987 0 0 1 -.765.353h-15v-4.024a2.061 2.061 0 0 0 2.069-.955l1.111-1.8a2.059 2.059 0 0 0 -.675-2.833l-12.869-7.923a3.1 3.1 0 0 0 -3.271 0l-12.865 7.919a2.059 2.059 0 0 0 -.675 2.833l1.111 1.8a2.05 2.05 0 0 0 1.276.923 2.026 2.026 0 0 0 .481.057 2.054 2.054 0 0 0 .307-.039v4.042h-15a.987.987 0 0 1 -.767-.357 1 1 0 0 1 -.219-.824l3.28-18a.99.99 0 0 1 .977-.819h47.458a.992.992 0 0 1 .976.819z"></path><path d="m9 53a2 2 0 0 0 2 2h6a2 2 0 0 0 2-2v-6a2 2 0 0 0 -2-2h-6a2 2 0 0 0 -2 2zm2-6h6v6h-6z"></path><path d="m11 43h6a2 2 0 0 0 2-2v-6a2 2 0 0 0 -2-2h-6a2 2 0 0 0 -2 2v6a2 2 0 0 0 2 2zm0-8h6v6h-6z"></path><path d="m25 41a2 2 0 0 0 2 2h6a2 2 0 0 0 2-2v-6a2 2 0 0 0 -2-2h-6a2 2 0 0 0 -2 2zm2-6h6v6h-6z"></path><path d="m27 31h6a2 2 0 0 0 2-2v-6a2 2 0 0 0 -2-2h-6a2 2 0 0 0 -2 2v6a2 2 0 0 0 2 2zm0-8h6v6h-6z"></path><path d="m41 53a2 2 0 0 0 2 2h6a2 2 0 0 0 2-2v-6a2 2 0 0 0 -2-2h-6a2 2 0 0 0 -2 2zm2-6h6v6h-6z"></path><path d="m43 43h6a2 2 0 0 0 2-2v-6a2 2 0 0 0 -2-2h-6a2 2 0 0 0 -2 2v6a2 2 0 0 0 2 2zm0-8h6v6h-6z"></path><path d="m29 51a1 1 0 0 0 -1 1v1a1 1 0 0 0 2 0v-1a1 1 0 0 0 -1-1z"></path></g></svg>